<svg width="16" height="14" viewBox="0 0 16 14" fill="none" xmlns="http://www.w3.org/2000/svg">
<path d="M14.1275 4.922L3.62751 0.587003C3.23021 0.422593 2.79413 0.375461 2.37089 0.451187C1.94764 0.526914 1.55495 0.722327 1.23931 1.01429C0.923674 1.30626 0.6983 1.68255 0.589873 2.09862C0.481446 2.5147 0.494506 2.95312 0.627507 3.362L1.78251 6.9995L0.597507 10.637C0.460911 11.0475 0.445567 11.4887 0.553313 11.9077C0.661059 12.3267 0.887327 12.7058 1.20501 12.9995C1.61349 13.3783 2.14797 13.5921 2.70501 13.5995C3.00106 13.5993 3.29416 13.5407 3.56751 13.427L14.105 9.092C14.5154 8.92133 14.866 8.63294 15.1127 8.2632C15.3594 7.89347 15.491 7.45896 15.491 7.0145C15.491 6.57004 15.3594 6.13554 15.1127 5.7658C14.866 5.39607 14.5154 5.10768 14.105 4.937L14.1275 4.922ZM3.02001 12.0245C2.88771 12.0791 2.74256 12.0947 2.60169 12.0694C2.46082 12.0442 2.33012 11.9791 2.22501 11.882C2.126 11.7874 2.05478 11.6675 2.01908 11.5353C1.98339 11.4031 1.98457 11.2636 2.02251 11.132L3.11751 7.7495H13.415L3.02001 12.0245ZM3.11751 6.2495L2.00001 2.897C1.96207 2.76542 1.96089 2.62595 1.99658 2.49374C2.03228 2.36153 2.1035 2.24161 2.20251 2.147C2.27309 2.07296 2.35807 2.01414 2.45222 1.97416C2.54638 1.93417 2.64772 1.91387 2.75001 1.9145C2.85054 1.9147 2.95001 1.9351 3.04251 1.9745L13.415 6.2495H3.11751Z" fill="white"/>
</svg>
